<svg id="visual" viewBox="0 0 1980 1080" width="1980" height="1080" xmlns="http://www.w3.org/2000/svg" xmlns:xlink="http://www.w3.org/1999/xlink" version="1.1"><rect x="0" y="0" width="1980" height="1080" fill="#fcfcfc"></rect><defs><linearGradient id="grad1_0" x1="45.5%" y1="0%" x2="100%" y2="100%"><stop offset="13.333333333333334%" stop-color="#fcfcfc" stop-opacity="1"></stop><stop offset="86.66666666666667%" stop-color="#fcfcfc" stop-opacity="1"></stop></linearGradient></defs><defs><linearGradient id="grad2_0" x1="0%" y1="0%" x2="54.5%" y2="100%"><stop offset="13.333333333333334%" stop-color="#fcfcfc" stop-opacity="1"></stop><stop offset="86.66666666666667%" stop-color="#fcfcfc" stop-opacity="1"></stop></linearGradient></defs><g transform="translate(1980, 0)"><path d="M0 972C-108 921.5 -216 871 -345.9 835.2C-475.9 799.4 -627.9 778.4 -687.3 687.3C-746.7 596.2 -713.6 435.1 -745.6 308.8C-777.6 182.6 -874.8 91.3 -972 0L0 0Z" fill="#6d15fb"></path></g><g transform="translate(0, 1080)"><path d="M0 -972C117.1 -937.1 234.2 -902.3 357 -862C479.9 -821.7 608.5 -775.9 687.3 -687.3C766.1 -598.7 795.1 -467.3 834.3 -345.6C873.4 -223.9 922.7 -111.9 972 0L0 0Z" fill="#6d15fb"></path></g></svg>