<svg width="273" height="273" viewBox="0 0 273 273" fill="none" xmlns="http://www.w3.org/2000/svg">
<path d="M225.356 173.647C227.939 182.917 222.406 192.5 213.087 194.898C206.576 196.574 201.64 201.893 200.456 208.512C198.761 217.984 189.618 224.218 180.181 222.335C173.587 221.019 166.832 223.67 162.894 229.12C157.257 236.919 146.314 238.568 138.629 232.777C133.259 228.731 126.023 228.188 120.11 231.389C111.648 235.97 101.073 232.708 96.6616 224.156C93.5793 218.181 87.2948 214.553 80.5788 214.871C70.9668 215.326 62.8547 207.799 62.5906 198.18C62.4061 191.459 58.3183 185.463 52.1294 182.836C43.2715 179.076 39.2286 168.775 43.1643 159.994C45.9142 153.858 44.8326 146.683 40.3965 141.63C34.0473 134.399 34.8743 123.364 42.2303 117.16C47.3699 112.825 49.5088 105.891 47.7041 99.4145C45.1211 90.1447 50.6542 80.5612 59.9735 78.1633C66.4849 76.4878 71.4207 71.1683 72.6048 64.5499C74.2997 55.0775 83.4429 48.8437 92.8797 50.7267C99.4732 52.0424 106.228 49.3912 110.167 43.9421C115.804 36.143 126.746 34.4937 134.432 40.2847C139.801 44.3309 147.038 44.8732 152.95 41.6725C161.413 37.0916 171.987 40.3534 176.399 48.9055C179.481 54.8808 185.766 58.5091 192.482 58.1909C202.094 57.7354 210.206 65.2622 210.47 74.8815C210.654 81.6024 214.742 87.5982 220.931 90.2254C229.789 93.9855 233.832 104.287 229.896 113.068C227.146 119.203 228.228 126.379 232.664 131.431C239.013 138.662 238.186 149.697 230.83 155.901C225.691 160.236 223.552 167.17 225.356 173.647Z" fill="#FC7EFF"/>
<path d="M93.5513 79.9352L88.5507 72.7826L90.9675 71.093C91.5286 70.7007 92.0581 70.4813 92.556 70.4348C93.0545 70.3843 93.5096 70.47 93.9212 70.6918C94.3328 70.9136 94.6859 71.2352 94.9805 71.6567C95.2751 72.0781 95.4568 72.5213 95.5254 72.9864C95.5963 73.4498 95.5253 73.9085 95.3123 74.3624C95.0977 74.814 94.7122 75.2344 94.1557 75.6234L92.4234 76.8345L91.8863 76.0662L93.5906 74.8746C93.9748 74.606 94.2369 74.324 94.3769 74.0285C94.517 73.733 94.5604 73.4357 94.5073 73.1366C94.4549 72.8335 94.3286 72.5388 94.1283 72.2524C93.9281 71.9661 93.6955 71.7474 93.4305 71.5964C93.1678 71.4438 92.8742 71.3857 92.5495 71.4221C92.2232 71.4561 91.8656 71.609 91.4768 71.8809L89.954 72.9454L94.4175 79.3297L93.5513 79.9352ZM99.8496 75.665L95.6142 68.0344L100.219 65.4783L100.674 66.298L96.9932 68.3412L98.4243 70.9195L101.867 69.0087L102.322 69.8284L98.8793 71.7392L100.319 74.3325L104.059 72.2562L104.514 73.0759L99.8496 75.665ZM106.163 72.2796L102.698 64.2696L107.533 62.1785L107.905 63.039L104.04 64.7104L105.211 67.417L108.825 65.8538L109.197 66.7142L105.583 68.2774L106.761 70.9996L110.688 69.301L111.06 70.1615L106.163 72.2796ZM112.779 69.536L110.155 61.2127L112.967 60.326C113.617 60.1209 114.186 60.0637 114.673 60.1543C115.16 60.2423 115.564 60.447 115.886 60.7685C116.208 61.09 116.446 61.496 116.6 61.9864C116.755 62.4768 116.792 62.9433 116.711 63.3858C116.63 63.8283 116.417 64.2233 116.07 64.5708C115.723 64.9155 115.227 65.1896 114.583 65.3929L112.307 66.1105L112.02 65.2001L114.263 64.4928C114.707 64.3527 115.045 64.1749 115.274 63.9594C115.507 63.7431 115.647 63.4965 115.694 63.2196C115.742 62.9392 115.714 62.6323 115.609 62.299C115.504 61.9658 115.35 61.6942 115.146 61.4842C114.943 61.2742 114.683 61.1446 114.367 61.0955C114.05 61.0436 113.666 61.0885 113.217 61.2303L111.445 61.789L113.787 69.2183L112.779 69.536ZM115.518 64.5618L118.745 67.655L117.575 68.024L114.38 64.9206L115.518 64.5618ZM118.573 58.7714L119.815 58.547L124.022 65.148L124.123 65.1298L125.753 57.4734L126.994 57.249L128.546 65.8371L127.574 66.0129L126.394 59.488L126.31 59.5032L124.806 66.5133L123.867 66.6831L120.003 60.6435L119.919 60.6586L121.099 67.1835L120.126 67.3594L118.573 58.7714ZM130.994 65.5804L129.887 65.6349L132.659 56.7605L133.748 56.7068L137.378 65.2658L136.272 65.3203L133.305 58.111L133.237 58.1143L130.994 65.5804ZM131.235 62.1553L135.695 61.9355L135.741 62.8718L131.281 63.0917L131.235 62.1553ZM137.654 57.5535L137.704 56.6173L144.24 56.9667L144.19 57.9028L141.45 57.7563L141.034 65.535L139.978 65.4786L140.394 57.6999L137.654 57.5535ZM145.386 65.8762L146.743 57.2551L151.946 58.0743L151.801 59.0003L147.642 58.3456L147.183 61.2586L151.073 61.8709L150.927 62.797L147.037 62.1847L146.576 65.1145L150.802 65.7798L150.656 66.7059L145.386 65.8762ZM158.301 64.6767L158.911 62.9026L157.102 63.4038L156.919 62.5999L158.77 62.2539L157.425 60.9364L158.024 60.3704L159.248 61.7936L159.728 59.9797L160.511 60.2177L159.901 61.9918L161.71 61.4905L161.893 62.2945L160.042 62.6405L161.388 63.958L160.788 64.524L159.564 63.1008L159.084 64.9146L158.301 64.6767ZM164.567 70.9534L168.245 63.0388L170.919 64.2815C171.54 64.57 171.996 64.9179 172.286 65.3252C172.58 65.7312 172.734 66.1678 172.748 66.6351C172.763 67.1024 172.662 67.5692 172.445 68.0356C172.229 68.5019 171.936 68.8814 171.569 69.1741C171.203 69.468 170.771 69.6367 170.271 69.6803C169.773 69.7213 169.216 69.5987 168.6 69.3126L166.684 68.4219L167.079 67.5717L168.964 68.448C169.39 68.6455 169.765 68.7307 170.091 68.7036C170.417 68.6765 170.696 68.5649 170.928 68.3688C171.164 68.1714 171.355 67.9143 171.502 67.5974C171.65 67.2805 171.722 66.9696 171.72 66.6646C171.72 66.3608 171.623 66.0776 171.428 65.815C171.235 65.5498 170.924 65.3173 170.493 65.1173L168.808 64.3344L165.526 71.3987L164.567 70.9534ZM171.419 74.2589L175.903 66.7715L180.422 69.4775L179.94 70.2818L176.328 68.1188L174.813 70.6487L178.191 72.6716L177.71 73.4759L174.331 71.453L172.808 73.9976L176.478 76.1956L175.997 76.9999L171.419 74.2589ZM177.51 78.0302L182.724 71.0319L186.948 74.1788L186.388 74.9306L183.012 72.4151L181.25 74.7797L184.407 77.1323L183.847 77.8841L180.69 75.5315L178.918 77.9098L182.349 80.4661L181.788 81.2179L177.51 78.0302ZM183.188 82.3987L189.108 75.9862L191.274 77.9865C191.775 78.449 192.107 78.9142 192.271 79.3821C192.436 79.8479 192.459 80.3004 192.34 80.7394C192.221 81.1784 191.987 81.5868 191.638 81.9646C191.289 82.3425 190.903 82.6062 190.479 82.7558C190.054 82.9055 189.606 82.9164 189.132 82.7885C188.66 82.6586 188.176 82.3643 187.679 81.9057L185.926 80.2869L186.573 79.5856L188.302 81.1812C188.644 81.4972 188.966 81.7015 189.267 81.794C189.57 81.8884 189.854 81.8871 190.117 81.7902C190.385 81.693 190.637 81.5161 190.874 81.2593C191.111 81.0026 191.27 80.7339 191.352 80.4532C191.433 80.1725 191.416 79.8827 191.302 79.5837C191.189 79.2826 190.96 78.9721 190.613 78.6522L189.248 77.3919L183.964 83.1156L183.188 82.3987ZM188.865 82.3046L187.784 86.6421L186.882 85.8096L187.989 81.4952L188.865 82.3046ZM195.418 82.0939L196.228 83.0611L192.577 89.9855L192.643 90.064L200.101 87.6879L200.911 88.6551L194.219 94.2573L193.585 93.4992L198.669 89.2429L198.614 89.1775L191.779 91.3426L191.166 90.6107L194.5 84.2632L194.445 84.1978L189.361 88.4542L188.726 87.6961L195.418 82.0939ZM195.662 96.2519L195.061 95.3212L204.13 93.2776L204.722 94.1939L199.13 101.621L198.529 100.69L203.285 94.5135L203.248 94.4563L195.662 96.2519ZM198.747 94.7458L201.171 98.4971L200.383 99.0058L197.96 95.2545L198.747 94.7458ZM205.945 97.9996L206.78 97.5744L209.749 103.408L208.913 103.833L207.668 101.387L200.726 104.92L200.247 103.978L207.189 100.445L205.945 97.9996ZM202.609 108.86L210.752 105.722L212.646 110.637L211.771 110.974L210.257 107.045L207.506 108.105L208.921 111.78L208.047 112.117L206.631 108.442L203.863 109.509L205.402 113.501L204.527 113.838L202.609 108.86ZM210.089 119.45L211.93 119.091L210.592 117.775L211.196 117.215L212.421 118.645L212.89 116.821L213.68 117.057L213.059 118.829L214.87 118.337L215.055 119.134L213.214 119.493L214.552 120.809L213.948 121.37L212.723 119.94L212.254 121.764L211.464 121.527L212.085 119.755L210.274 120.247L210.089 119.45ZM207.778 128.015L216.474 127.277L216.723 130.215C216.781 130.898 216.705 131.466 216.495 131.92C216.289 132.376 215.987 132.727 215.588 132.972C215.19 133.216 214.735 133.361 214.222 133.404C213.71 133.448 213.235 133.382 212.799 133.208C212.362 133.037 212.001 132.746 211.715 132.334C211.432 131.922 211.262 131.377 211.204 130.701L211.026 128.595L211.96 128.515L212.136 130.587C212.175 131.054 212.288 131.423 212.473 131.692C212.659 131.961 212.894 132.148 213.179 132.252C213.468 132.359 213.786 132.398 214.134 132.368C214.482 132.338 214.788 132.247 215.052 132.093C215.316 131.943 215.513 131.718 215.645 131.419C215.779 131.119 215.826 130.733 215.786 130.261L215.629 128.409L207.867 129.068L207.778 128.015ZM208.312 135.603L217.037 135.77L216.937 141.036L216 141.018L216.08 136.809L213.132 136.752L213.056 140.689L212.119 140.671L212.194 136.735L209.229 136.678L209.147 140.956L208.21 140.938L208.312 135.603ZM208.069 142.762L216.734 143.804L216.105 149.033L215.174 148.922L215.677 144.741L212.749 144.389L212.279 148.299L211.348 148.187L211.818 144.277L208.874 143.923L208.363 148.171L207.432 148.059L208.069 142.762ZM207.106 149.86L215.618 151.786L214.967 154.662C214.817 155.327 214.58 155.847 214.256 156.223C213.935 156.598 213.555 156.844 213.115 156.96C212.675 157.076 212.204 157.078 211.703 156.964C211.201 156.851 210.78 156.648 210.438 156.355C210.097 156.062 209.863 155.678 209.737 155.204C209.614 154.731 209.627 154.164 209.777 153.505L210.303 151.177L211.234 151.388L210.715 153.682C210.612 154.137 210.596 154.518 210.666 154.825C210.736 155.135 210.879 155.38 211.094 155.559C211.312 155.743 211.591 155.873 211.932 155.95C212.273 156.027 212.585 156.031 212.869 155.961C213.153 155.891 213.396 155.732 213.597 155.484C213.802 155.236 213.956 154.882 214.061 154.422L214.471 152.61L206.873 150.891L207.106 149.86ZM210.023 154.732L205.725 155.961L205.996 154.764L210.287 153.568L210.023 154.732ZM213.485 160.29L213.053 161.476L205.231 161.783L205.196 161.879L210.988 167.145L210.556 168.33L202.356 165.344L202.695 164.415L208.925 166.684L208.954 166.604L203.657 161.772L203.984 160.875L211.147 160.582L211.177 160.502L204.946 158.232L205.285 157.303L213.485 160.29ZM201.351 167.589L201.857 166.603L208.162 173.436L207.664 174.407L198.436 173.278L198.941 172.292L206.668 173.322L206.7 173.261L201.351 167.589ZM204.199 169.508L202.161 173.483L201.327 173.055L203.364 169.081L204.199 169.508ZM204.976 177.373L205.761 177.885L202.188 183.369L201.403 182.857L202.901 180.558L196.374 176.306L196.951 175.421L203.478 179.672L204.976 177.373ZM193.899 179.903L200.673 185.405L197.353 189.493L196.625 188.902L199.279 185.634L196.99 183.775L194.508 186.832L193.78 186.241L196.263 183.184L193.96 181.314L191.263 184.635L190.535 184.044L193.899 179.903ZM188.427 191.661L189.653 193.082L190.131 191.266L190.917 191.513L190.284 193.286L192.1 192.788L192.287 193.591L190.441 193.932L191.766 195.26L191.167 195.816L189.941 194.395L189.463 196.211L188.676 195.964L189.31 194.191L187.494 194.69L187.307 193.887L189.153 193.546L187.827 192.218L188.427 191.661ZM179.849 193.913L184.829 201.079L182.408 202.762C181.845 203.153 181.315 203.371 180.817 203.416C180.319 203.465 179.864 203.378 179.453 203.155C179.042 202.932 178.69 202.609 178.396 202.187C178.103 201.765 177.923 201.321 177.855 200.856C177.786 200.392 177.858 199.934 178.072 199.48C178.288 199.029 178.675 198.61 179.232 198.223L180.968 197.016L181.503 197.786L179.795 198.973C179.411 199.241 179.148 199.522 179.007 199.817C178.866 200.112 178.821 200.409 178.874 200.708C178.925 201.012 179.051 201.307 179.25 201.594C179.45 201.881 179.682 202.1 179.946 202.252C180.208 202.405 180.502 202.464 180.827 202.429C181.153 202.395 181.511 202.244 181.901 201.973L183.426 200.913L178.981 194.516L179.849 193.913ZM173.541 198.164L177.76 205.804L173.15 208.35L172.696 207.53L176.382 205.494L174.956 202.913L171.509 204.817L171.056 203.996L174.503 202.092L173.069 199.496L169.324 201.565L168.87 200.744L173.541 198.164ZM167.22 201.535L170.659 209.557L165.818 211.632L165.448 210.77L169.318 209.111L168.156 206.401L164.537 207.953L164.168 207.091L167.787 205.539L166.618 202.814L162.686 204.499L162.316 203.638L167.22 201.535ZM160.594 204.257L163.184 212.591L160.368 213.467C159.717 213.669 159.148 213.724 158.661 213.631C158.175 213.541 157.772 213.335 157.451 213.012C157.131 212.689 156.894 212.282 156.741 211.791C156.589 211.3 156.554 210.834 156.637 210.392C156.719 209.949 156.934 209.555 157.282 209.209C157.63 208.866 158.128 208.594 158.773 208.393L161.052 207.685L161.335 208.596L159.089 209.295C158.644 209.433 158.306 209.609 158.075 209.824C157.842 210.039 157.701 210.285 157.653 210.562C157.604 210.842 157.631 211.149 157.734 211.483C157.838 211.816 157.991 212.089 158.193 212.299C158.396 212.51 158.655 212.641 158.971 212.691C159.288 212.745 159.672 212.701 160.122 212.561L161.896 212.01L159.584 204.571L160.594 204.257ZM157.834 209.22L154.62 206.114L155.792 205.75L158.974 208.866L157.834 209.22ZM154.727 215L153.484 215.216L149.324 208.585L149.223 208.602L147.539 216.247L146.296 216.463L144.805 207.864L145.779 207.695L146.912 214.228L146.996 214.213L148.55 207.214L149.49 207.051L153.311 213.118L153.395 213.103L152.261 206.57L153.235 206.401L154.727 215ZM142.355 208.11L143.462 208.058L140.671 216.926L139.581 216.978L135.97 208.41L137.077 208.358L140.027 215.574L140.095 215.571L142.355 208.11ZM142.106 211.535L137.645 211.744L137.601 210.808L142.062 210.598L142.106 211.535ZM135.66 216.12L135.606 217.056L129.071 216.677L129.126 215.741L131.865 215.9L132.316 208.123L133.371 208.184L132.92 215.961L135.66 216.12ZM127.965 207.762L126.568 216.377L121.368 215.534L121.519 214.608L125.674 215.282L126.146 212.371L122.26 211.741L122.41 210.816L126.297 211.446L126.771 208.518L122.548 207.834L122.698 206.908L127.965 207.762ZM115.052 208.896L114.437 210.669L116.247 210.173L116.428 210.977L114.576 211.318L115.918 212.639L115.317 213.203L114.097 211.777L113.612 213.59L112.83 213.349L113.445 211.577L111.634 212.073L111.453 211.269L113.305 210.928L111.963 209.607L112.565 209.042L113.785 210.469L114.27 208.656L115.052 208.896ZM108.806 202.595L105.095 210.494L102.426 209.24C101.806 208.949 101.352 208.599 101.064 208.19C100.771 207.783 100.619 207.346 100.606 206.879C100.594 206.411 100.697 205.945 100.915 205.479C101.134 205.014 101.428 204.636 101.797 204.345C102.163 204.052 102.596 203.885 103.096 203.844C103.595 203.805 104.151 203.93 104.766 204.219L106.679 205.117L106.28 205.966L104.398 205.082C103.974 204.882 103.599 204.796 103.273 204.821C102.947 204.847 102.667 204.957 102.434 205.153C102.198 205.349 102.005 205.605 101.856 205.922C101.708 206.238 101.634 206.548 101.635 206.853C101.634 207.157 101.73 207.441 101.923 207.704C102.115 207.97 102.426 208.204 102.855 208.406L104.537 209.196L107.849 202.145L108.806 202.595ZM101.967 199.26L97.4504 206.727L92.9437 204.002L93.4289 203.199L97.0314 205.378L98.5576 202.855L95.1884 200.817L95.6736 200.015L99.0428 202.053L100.578 199.515L96.917 197.301L97.4022 196.499L101.967 199.26ZM95.8928 195.461L90.6472 202.436L86.4378 199.27L87.0012 198.521L90.3661 201.052L92.1385 198.695L88.9917 196.328L89.5552 195.579L92.702 197.946L94.4847 195.575L91.0654 193.004L91.6289 192.255L95.8928 195.461ZM90.2355 191.066L84.2775 197.443L82.1228 195.43C81.6245 194.965 81.2951 194.497 81.1345 194.028C80.9719 193.562 80.9515 193.109 81.0732 192.671C81.195 192.232 81.4314 191.825 81.7825 191.45C82.1335 191.074 82.5216 190.813 82.9467 190.665C83.3719 190.518 83.8208 190.51 84.2936 190.641C84.7644 190.774 85.2469 191.071 85.7409 191.532L87.4847 193.161L86.833 193.859L85.1142 192.253C84.7738 191.935 84.4532 191.729 84.1525 191.635C83.8497 191.538 83.5663 191.538 83.3022 191.633C83.0341 191.729 82.7808 191.904 82.5423 192.16C82.3037 192.415 82.143 192.683 82.06 192.963C81.9771 193.243 81.992 193.533 82.1047 193.833C82.2154 194.134 82.4431 194.446 82.7877 194.768L84.1453 196.037L89.4633 190.345L90.2355 191.066ZM84.5573 191.126L85.6644 186.795L86.5612 187.633L85.4292 191.941L84.5573 191.126ZM78.0109 191.31L77.2054 190.339L80.8861 183.431L80.8208 183.352L73.352 185.696L72.5465 184.725L79.2624 179.152L79.8937 179.913L74.7912 184.147L74.8456 184.213L81.6898 182.077L82.2994 182.812L78.9385 189.145L78.993 189.21L84.0955 184.976L84.7268 185.737L78.0109 191.31ZM77.8287 177.152L78.4258 178.085L69.3475 180.089L68.7595 179.171L74.3834 171.767L74.9806 172.701L70.1981 178.857L70.2349 178.915L77.8287 177.152ZM74.7367 178.644L72.3296 174.883L73.1193 174.377L75.5263 178.139L74.7367 178.644ZM67.5547 175.362L66.7174 175.784L63.7722 169.939L64.6094 169.517L65.8443 171.968L72.8009 168.463L73.2764 169.406L66.3198 172.912L67.5547 175.362ZM70.9341 164.516L62.777 167.618L60.9044 162.695L61.7807 162.362L63.2775 166.297L66.0337 165.249L64.6338 161.569L65.5101 161.235L66.91 164.916L69.6821 163.861L68.161 159.862L69.0373 159.529L70.9341 164.516ZM63.5017 153.889L61.6582 154.238L62.99 155.561L62.3825 156.119L61.1648 154.682L60.6871 156.504L59.8983 156.263L60.5279 154.495L58.7146 154.977L58.5333 154.179L60.3768 153.83L59.045 152.507L59.6525 151.949L60.8703 153.386L61.3479 151.564L62.1367 151.804L61.5071 153.573L63.3205 153.091L63.5017 153.889ZM65.8543 145.336L57.1553 146.038L56.9181 143.099C56.8631 142.417 56.9412 141.849 57.1527 141.396C57.361 140.94 57.6649 140.59 58.0642 140.347C58.4636 140.104 58.9195 139.962 59.4321 139.921C59.9446 139.879 60.4189 139.946 60.8549 140.122C61.2906 140.295 61.6506 140.588 61.9347 141.001C62.216 141.415 62.384 141.96 62.4386 142.637L62.6086 144.743L61.6741 144.819L61.5069 142.746C61.4692 142.279 61.3582 141.91 61.1739 141.64C60.9897 141.37 60.7551 141.182 60.4701 141.077C60.1821 140.969 59.864 140.929 59.5157 140.957C59.1674 140.985 58.8611 141.075 58.597 141.228C58.3326 141.377 58.134 141.601 58.0014 141.9C57.8659 142.199 57.8172 142.585 57.8553 143.058L58.0047 144.909L65.7693 144.283L65.8543 145.336ZM65.352 137.746L56.6271 137.54L56.7511 132.275L57.6884 132.297L57.5893 136.506L60.5373 136.575L60.63 132.639L61.5672 132.661L61.4745 136.597L64.4396 136.667L64.5403 132.39L65.4776 132.412L65.352 137.746ZM65.6267 130.588L56.9666 129.508L57.6189 124.281L58.5492 124.397L58.0278 128.575L60.9539 128.94L61.4416 125.033L62.3719 125.149L61.8842 129.056L64.8273 129.424L65.3571 125.178L66.2874 125.294L65.6267 130.588ZM66.6197 123.495L58.1133 121.544L58.7725 118.67C58.9249 118.005 59.1635 117.486 59.4884 117.111C59.8105 116.736 60.1916 116.491 60.6318 116.377C61.072 116.262 61.5427 116.262 62.0439 116.377C62.5451 116.492 62.966 116.696 63.3067 116.99C63.6473 117.284 63.8799 117.668 64.0042 118.142C64.1258 118.616 64.111 119.183 63.9599 119.842L63.4264 122.168L62.496 121.954L63.0219 119.662C63.126 119.208 63.1434 118.827 63.074 118.519C63.0052 118.209 62.8633 117.964 62.6482 117.783C62.4309 117.6 62.152 117.469 61.8114 117.39C61.4709 117.312 61.1586 117.308 60.8746 117.377C60.5907 117.446 60.3474 117.604 60.1448 117.852C59.9394 118.099 59.784 118.453 59.6786 118.912L59.2633 120.723L66.8559 122.465L66.6197 123.495ZM63.7167 118.614L68.0181 117.397L67.7438 118.594L63.45 119.777L63.7167 118.614ZM60.2785 113.031L60.7158 111.848L68.5391 111.577L68.5745 111.481L62.8076 106.188L63.2449 105.005L71.431 108.03L71.0882 108.957L64.8687 106.659L64.8392 106.739L70.1133 111.596L69.7824 112.491L62.6174 112.75L62.5879 112.83L68.8074 115.129L68.4646 116.056L60.2785 113.031ZM72.4463 105.788L71.9365 106.772L65.6626 99.9108L66.1646 98.9423L75.3876 100.113L74.8778 101.097L67.1551 100.032L67.1238 100.092L72.4463 105.788ZM69.6078 103.856L71.6628 99.8912L72.4952 100.323L70.4402 104.288L69.6078 103.856ZM68.8692 95.9841L68.0863 95.4685L71.6865 90.0021L72.4695 90.5177L70.96 92.8096L77.4656 97.0943L76.8843 97.9769L70.3787 93.6922L68.8692 95.9841ZM79.9581 93.5094L73.2077 87.9779L76.546 83.9039L77.2712 84.4981L74.6027 87.7546L76.8835 89.6237L79.3792 86.5781L80.1043 87.1723L77.6087 90.2179L79.9028 92.0977L82.6145 88.7885L83.3396 89.3827L79.9581 93.5094ZM85.4729 81.7694L84.253 80.3439L83.7681 82.1575L82.9822 81.908L83.6222 80.1369L81.8045 80.629L81.6205 79.8252L83.4678 79.4912L82.1476 78.1581L82.7494 77.6039L83.9694 79.0294L84.4543 77.2158L85.2402 77.4653L84.6002 79.2363L86.4179 78.7443L86.6019 79.548L84.7545 79.882L86.0748 81.2151L85.4729 81.7694Z" fill="black"/>
</svg>
