<svg width="569" height="570" viewBox="0 0 569 570" fill="none" xmlns="http://www.w3.org/2000/svg">
<rect x="3.40002" width="562" height="562" rx="281" fill="white"/>
<g filter="url(#filter0_d_57_20)">
<circle cx="284.4" cy="281" r="281" fill="url(#paint0_radial_57_20)" shape-rendering="crispEdges"/>
</g>
<rect x="184.4" y="294" width="71" height="118" rx="31" fill="black"/>
<path d="M45.4001 194C45.4001 181.85 55.2499 172 67.4001 172H162.4C174.55 172 184.4 181.85 184.4 194V236.69C184.4 250.399 171.998 260.769 158.506 258.343L63.5057 241.256C53.0258 239.372 45.4 230.252 45.4001 219.604L45.4001 194Z" fill="black"/>
<path d="M255.4 194C255.4 181.85 265.25 172 277.4 172H385.4C397.55 172 407.4 181.85 407.4 194V219.323C407.4 230.095 399.6 239.283 388.97 241.031L280.971 258.794C267.575 260.998 255.4 250.662 255.4 237.086V194Z" fill="black"/>
<rect x="175.4" y="194" width="95" height="21" fill="black"/>
<defs>
<filter id="filter0_d_57_20" x="2.43187e-05" y="0" width="568.8" height="569.4" filterUnits="userSpaceOnUse" color-interpolation-filters="sRGB">
<feFlood flood-opacity="0" result="BackgroundImageFix"/>
<feColorMatrix in="SourceAlpha" type="matrix" values="0 0 0 0 0 0 0 0 0 0 0 0 0 0 0 0 0 0 127 0" result="hardAlpha"/>
<feMorphology radius="1" operator="dilate" in="SourceAlpha" result="effect1_dropShadow_57_20"/>
<feOffset dy="4"/>
<feGaussianBlur stdDeviation="1.2"/>
<feComposite in2="hardAlpha" operator="out"/>
<feColorMatrix type="matrix" values="0 0 0 0 0.636122 0 0 0 0 0.513243 0 0 0 0 0.974038 0 0 0 0.25 0"/>
<feBlend mode="normal" in2="BackgroundImageFix" result="effect1_dropShadow_57_20"/>
<feBlend mode="normal" in="SourceGraphic" in2="effect1_dropShadow_57_20" result="shape"/>
</filter>
<radialGradient id="paint0_radial_57_20" cx="0" cy="0" r="1" gradientUnits="userSpaceOnUse" gradientTransform="translate(146.4 221.5) rotate(42.9827) scale(417.935)">
<stop stop-color="#C822F6" stop-opacity="0"/>
<stop offset="0.682692" stop-color="#C05DC2" stop-opacity="0.64"/>
<stop offset="1" stop-color="#FA36FF"/>
</radialGradient>
</defs>
</svg>
